<?xml version="1.0" standalone="no"?>
<!DOCTYPE svg PUBLIC "-//W3C//DTD SVG 20010904//EN"
 "http://www.w3.org/TR/2001/REC-SVG-20010904/DTD/svg10.dtd">
<svg version="1.0" xmlns="http://www.w3.org/2000/svg"
 width="400.000000pt" height="400.000000pt" viewBox="0 0 400.000000 400.000000"
 preserveAspectRatio="xMidYMid meet">
<metadata>
Created by potrace 1.14, written by Peter Selinger 2001-2017
</metadata>
<g transform="translate(0.000000,400.000000) scale(0.100000,-0.100000)"
fill="#000000" stroke="none">
<path d="M1197 3780 c-27 -26 -57 -61 -68 -79 -10 -17 -29 -36 -42 -40 -12 -5
-58 -49 -102 -97 -44 -48 -93 -99 -110 -113 -16 -14 -66 -64 -110 -110 -44
-46 -96 -98 -115 -115 -19 -17 -58 -55 -87 -86 -29 -30 -56 -59 -60 -63 -4 -5
-48 -48 -98 -96 -49 -48 -102 -101 -117 -117 -14 -16 -47 -47 -72 -69 l-45
-40 -1 -765 0 -765 33 -35 c19 -19 67 -67 108 -107 41 -39 145 -143 231 -230
87 -87 283 -283 436 -435 l278 -278 775 0 776 0 536 535 537 535 0 775 0 775
-42 40 c-24 22 -52 49 -63 60 -11 12 -63 63 -115 115 -52 52 -98 97 -103 102
-37 40 -351 354 -373 374 -16 14 -67 67 -114 117 -46 51 -90 92 -97 92 -7 0
-20 12 -30 27 -10 14 -44 53 -77 85 l-59 58 -781 -2 -781 -1 -48 -47z"/>
</g>
</svg>
